<svg xmlns="http://www.w3.org/2000/svg" viewBox="0 0 394.97 97.39">
    <defs>
        <style>.a{fill:#231f20;}.b,.c,.d{fill:none;}.b{stroke:#231f20;}.b,.d{stroke-miterlimit:10;stroke-width:6px;}.d{stroke:#ec008c;}</style>
    </defs>
    <title>MCTX logo</title>
    <polyline class="a" points="96.53 8.48 48.26 56.75 6 14.48 6 97.36 0 97.36 0 0 48.26 48.26 96.53 0 96.53 8.48"/>
    <path class="b" d="M220.94,85.69" transform="translate(-56.53 -33.38)"/>
    <path class="a" d="M220.94,130.78c-26.5,0-48.06-21.84-48.06-48.7s21.56-48.7,48.06-48.7a47.43,47.43,0,0,1,34,14.28l-4.27,4.23A41.48,41.48,0,0,0,220.94,39.4c-23.19,0-42.06,19.15-42.06,42.68s18.87,42.68,42.06,42.68a41.48,41.48,0,0,0,29.73-12.49l4.27,4.23A47.43,47.43,0,0,1,220.94,130.78Z" transform="translate(-56.53 -33.38)"/>
    <rect class="a" x="214.37" width="70.66" height="7"/>
    <rect class="a" x="248.46" y="7" width="6" height="90.36"/>
    <polygon class="a" points="393.29 97.36 308.5 0 300.1 0 343.34 49.67 301.81 97.36 310.19 97.36 347.54 54.49 384.88 97.36 393.29 97.36"/>
    <polygon class="a" points="96.53 97.36 90.53 97.36 90.53 37.43 48.26 79.7 48.26 71.2 96.53 22.94 96.53 97.36"/>
    <path class="c" d="M153.84,41.09" transform="translate(-56.53 -33.38)"/>
    <path class="c" d="M104.79,90.13" transform="translate(-56.53 -33.38)"/>
    <path class="d" d="M401.74,99.88" transform="translate(-56.53 -33.38)"/>
    <path class="d" d="M404.06,83.05" transform="translate(-56.53 -33.38)"/>
    <polygon class="a" points="359.19 41.11 354.99 36.28 386.57 0 394.97 0 359.19 41.11"/>
    <polygon class="a" points="359.3 41.11 363.5 36.28 331.91 0 323.51 0 359.3 41.11"/>
</svg>